<mxfile host="app.diagrams.net" agent="Mozilla/5.0 (Windows NT 10.0; Win64; x64) AppleWebKit/537.36 (KHTML, like Gecko) Chrome/138.0.0.0 Safari/537.36" version="27.2.0">
  <diagram name="Page-1" id="47QhIyalsUEj4xb5wFI7">
    <mxGraphModel dx="3169" dy="1680" grid="1" gridSize="10" guides="1" tooltips="1" connect="1" arrows="1" fold="1" page="1" pageScale="1" pageWidth="850" pageHeight="1100" math="0" shadow="0">
      <root>
        <mxCell id="0" />
        <mxCell id="1" parent="0" />
        <mxCell id="b4sE8ZXVgSYnRpChD7hY-1" value="" style="rounded=0;whiteSpace=wrap;html=1;strokeWidth=4;movable=0;resizable=0;rotatable=0;deletable=0;editable=0;locked=1;connectable=0;" vertex="1" parent="1">
          <mxGeometry x="479.995" y="280" width="545" height="2120" as="geometry" />
        </mxCell>
        <mxCell id="b4sE8ZXVgSYnRpChD7hY-2" value="" style="rounded=0;whiteSpace=wrap;html=1;strokeWidth=4;movable=0;resizable=0;rotatable=0;deletable=0;editable=0;locked=1;connectable=0;" vertex="1" parent="1">
          <mxGeometry x="1024.995" y="280" width="535" height="2120" as="geometry" />
        </mxCell>
        <mxCell id="b4sE8ZXVgSYnRpChD7hY-3" value="" style="endArrow=none;html=1;rounded=0;exitX=0.003;exitY=0.114;exitDx=0;exitDy=0;exitPerimeter=0;entryX=1.005;entryY=0.113;entryDx=0;entryDy=0;entryPerimeter=0;strokeWidth=4;" edge="1" parent="1">
          <mxGeometry width="50" height="50" relative="1" as="geometry">
            <mxPoint x="470" y="381.82000000000005" as="sourcePoint" />
            <mxPoint x="1551.04" y="380.0000000000001" as="targetPoint" />
          </mxGeometry>
        </mxCell>
        <mxCell id="b4sE8ZXVgSYnRpChD7hY-4" value="&lt;font style=&quot;font-size: 40px;&quot; face=&quot;Times New Roman&quot;&gt;ADMIN&lt;/font&gt;" style="text;html=1;align=center;verticalAlign=middle;whiteSpace=wrap;rounded=0;" vertex="1" parent="1">
          <mxGeometry x="645.625" y="330" width="195" height="30" as="geometry" />
        </mxCell>
        <mxCell id="b4sE8ZXVgSYnRpChD7hY-5" value="&lt;font style=&quot;font-size: 40px;&quot; face=&quot;Times New Roman&quot;&gt;SYSTEM&lt;/font&gt;" style="text;html=1;align=center;verticalAlign=middle;whiteSpace=wrap;rounded=0;" vertex="1" parent="1">
          <mxGeometry x="1194.9950000000001" y="330" width="195" height="30" as="geometry" />
        </mxCell>
        <mxCell id="b4sE8ZXVgSYnRpChD7hY-6" value="&lt;font style=&quot;font-size: 25px;&quot;&gt;MENAMPILKAN DASHBOARD&lt;/font&gt;&lt;div&gt;&lt;font style=&quot;font-size: 25px;&quot;&gt;&amp;nbsp;DAN SIDE BAR ADMIN&lt;/font&gt;&lt;/div&gt;" style="rounded=1;whiteSpace=wrap;html=1;strokeWidth=4;" vertex="1" parent="1">
          <mxGeometry x="1125.615" y="580" width="336.88" height="162.28" as="geometry" />
        </mxCell>
        <mxCell id="b4sE8ZXVgSYnRpChD7hY-7" value="" style="endArrow=classic;html=1;rounded=0;exitX=0;exitY=0.5;exitDx=0;exitDy=0;entryX=1;entryY=0.5;entryDx=0;entryDy=0;" edge="1" parent="1" source="b4sE8ZXVgSYnRpChD7hY-6" target="b4sE8ZXVgSYnRpChD7hY-8">
          <mxGeometry width="50" height="50" relative="1" as="geometry">
            <mxPoint x="909.995" y="912.28" as="sourcePoint" />
            <mxPoint x="1234.995" y="1132.28" as="targetPoint" />
            <Array as="points" />
          </mxGeometry>
        </mxCell>
        <mxCell id="b4sE8ZXVgSYnRpChD7hY-8" value="&lt;font style=&quot;font-size: 27px;&quot;&gt;MENGAKSES KELOLA REKOMENDASI&lt;/font&gt;" style="rounded=1;whiteSpace=wrap;html=1;strokeWidth=4;" vertex="1" parent="1">
          <mxGeometry x="599.995" y="587.28" width="319.69" height="147.72" as="geometry" />
        </mxCell>
        <mxCell id="b4sE8ZXVgSYnRpChD7hY-9" value="" style="edgeStyle=orthogonalEdgeStyle;rounded=0;orthogonalLoop=1;jettySize=auto;html=1;exitX=0.5;exitY=1;exitDx=0;exitDy=0;" edge="1" parent="1" source="b4sE8ZXVgSYnRpChD7hY-10" target="b4sE8ZXVgSYnRpChD7hY-15">
          <mxGeometry relative="1" as="geometry" />
        </mxCell>
        <mxCell id="b4sE8ZXVgSYnRpChD7hY-10" value="&lt;font style=&quot;font-size: 26px;&quot;&gt;MENAMPILKAN HALAMAN KELOLA REKOMENDASI&lt;/font&gt;" style="whiteSpace=wrap;html=1;rounded=1;strokeWidth=4;" vertex="1" parent="1">
          <mxGeometry x="1136.245" y="760" width="293.75" height="167.72" as="geometry" />
        </mxCell>
        <mxCell id="b4sE8ZXVgSYnRpChD7hY-11" value="" style="endArrow=classic;html=1;rounded=0;exitX=0.5;exitY=1;exitDx=0;exitDy=0;entryX=-0.02;entryY=0.544;entryDx=0;entryDy=0;entryPerimeter=0;" edge="1" parent="1" source="b4sE8ZXVgSYnRpChD7hY-8" target="b4sE8ZXVgSYnRpChD7hY-10">
          <mxGeometry width="50" height="50" relative="1" as="geometry">
            <mxPoint x="1339.6750000000002" y="1770" as="sourcePoint" />
            <mxPoint x="1401.8649999999998" y="1540" as="targetPoint" />
            <Array as="points">
              <mxPoint x="760" y="850" />
            </Array>
          </mxGeometry>
        </mxCell>
        <mxCell id="b4sE8ZXVgSYnRpChD7hY-12" value="" style="ellipse;whiteSpace=wrap;html=1;aspect=fixed;gradientColor=none;fillColor=#330000;" vertex="1" parent="1">
          <mxGeometry x="1252.495" y="440" width="80" height="80" as="geometry" />
        </mxCell>
        <mxCell id="b4sE8ZXVgSYnRpChD7hY-13" value="" style="endArrow=classic;html=1;rounded=0;exitX=0.5;exitY=1;exitDx=0;exitDy=0;entryX=0.5;entryY=0;entryDx=0;entryDy=0;" edge="1" parent="1" source="b4sE8ZXVgSYnRpChD7hY-12" target="b4sE8ZXVgSYnRpChD7hY-6">
          <mxGeometry width="50" height="50" relative="1" as="geometry">
            <mxPoint x="699.995" y="800" as="sourcePoint" />
            <mxPoint x="742.9667900000004" y="579.2885999999999" as="targetPoint" />
          </mxGeometry>
        </mxCell>
        <mxCell id="b4sE8ZXVgSYnRpChD7hY-14" value="" style="edgeStyle=orthogonalEdgeStyle;rounded=0;orthogonalLoop=1;jettySize=auto;html=1;" edge="1" parent="1" source="b4sE8ZXVgSYnRpChD7hY-15" target="b4sE8ZXVgSYnRpChD7hY-16">
          <mxGeometry relative="1" as="geometry" />
        </mxCell>
        <mxCell id="b4sE8ZXVgSYnRpChD7hY-15" value="&lt;span style=&quot;font-size: 26px;&quot;&gt;MEMILIH KEDAI KOPI&lt;/span&gt;" style="whiteSpace=wrap;html=1;rounded=1;strokeWidth=4;" vertex="1" parent="1">
          <mxGeometry x="612.9649999999999" y="986.14" width="293.75" height="167.72" as="geometry" />
        </mxCell>
        <mxCell id="b4sE8ZXVgSYnRpChD7hY-16" value="&lt;font style=&quot;font-size: 26px;&quot;&gt;MEMILIH EDISI&lt;/font&gt;" style="whiteSpace=wrap;html=1;rounded=1;strokeWidth=4;" vertex="1" parent="1">
          <mxGeometry x="610" y="1210" width="300" height="160" as="geometry" />
        </mxCell>
        <mxCell id="b4sE8ZXVgSYnRpChD7hY-17" value="" style="whiteSpace=wrap;html=1;rounded=1;strokeWidth=4;" vertex="1" parent="1">
          <mxGeometry x="510.625" y="1670" width="483.75" height="30" as="geometry" />
        </mxCell>
        <mxCell id="b4sE8ZXVgSYnRpChD7hY-18" value="" style="endArrow=classic;html=1;rounded=0;exitX=0.772;exitY=1.226;exitDx=0;exitDy=0;exitPerimeter=0;" edge="1" parent="1">
          <mxGeometry width="50" height="50" relative="1" as="geometry">
            <mxPoint x="884.9099999999999" y="1700" as="sourcePoint" />
            <mxPoint x="884.825" y="1743.2200000000003" as="targetPoint" />
          </mxGeometry>
        </mxCell>
        <mxCell id="b4sE8ZXVgSYnRpChD7hY-19" value="" style="endArrow=classic;html=1;rounded=0;exitX=0.772;exitY=1.226;exitDx=0;exitDy=0;exitPerimeter=0;" edge="1" parent="1">
          <mxGeometry width="50" height="50" relative="1" as="geometry">
            <mxPoint x="639.985" y="1700" as="sourcePoint" />
            <mxPoint x="639.985" y="1743" as="targetPoint" />
          </mxGeometry>
        </mxCell>
        <mxCell id="b4sE8ZXVgSYnRpChD7hY-20" value="" style="edgeStyle=orthogonalEdgeStyle;rounded=0;orthogonalLoop=1;jettySize=auto;html=1;" edge="1" parent="1" source="b4sE8ZXVgSYnRpChD7hY-21" target="b4sE8ZXVgSYnRpChD7hY-31">
          <mxGeometry relative="1" as="geometry" />
        </mxCell>
        <mxCell id="b4sE8ZXVgSYnRpChD7hY-21" value="&lt;span style=&quot;font-size: 26px;&quot;&gt;MENGEDIT&amp;nbsp;&lt;/span&gt;&lt;div&gt;&lt;span style=&quot;font-size: 26px;&quot;&gt;REKOMENDASI&lt;/span&gt;&lt;/div&gt;" style="whiteSpace=wrap;html=1;rounded=1;strokeWidth=4;" vertex="1" parent="1">
          <mxGeometry x="519.985" y="1750" width="220" height="114" as="geometry" />
        </mxCell>
        <mxCell id="b4sE8ZXVgSYnRpChD7hY-22" value="" style="edgeStyle=orthogonalEdgeStyle;rounded=0;orthogonalLoop=1;jettySize=auto;html=1;" edge="1" parent="1" source="b4sE8ZXVgSYnRpChD7hY-23" target="b4sE8ZXVgSYnRpChD7hY-24">
          <mxGeometry relative="1" as="geometry" />
        </mxCell>
        <mxCell id="b4sE8ZXVgSYnRpChD7hY-23" value="&lt;font style=&quot;font-size: 26px;&quot;&gt;MENGHAPUS&lt;/font&gt;&lt;div&gt;&lt;font style=&quot;font-size: 26px;&quot;&gt;REKOMENDASI&lt;/font&gt;&lt;/div&gt;" style="whiteSpace=wrap;html=1;rounded=1;strokeWidth=4;" vertex="1" parent="1">
          <mxGeometry x="769.985" y="1750" width="210" height="114" as="geometry" />
        </mxCell>
        <mxCell id="b4sE8ZXVgSYnRpChD7hY-24" value="&lt;span style=&quot;font-size: 26px;&quot;&gt;MENAMPILKAN ALERT UNTUK MENGHAPUS&lt;/span&gt;" style="whiteSpace=wrap;html=1;rounded=1;strokeWidth=4;" vertex="1" parent="1">
          <mxGeometry x="1049.995" y="1750" width="210" height="114" as="geometry" />
        </mxCell>
        <mxCell id="b4sE8ZXVgSYnRpChD7hY-25" value="" style="edgeStyle=orthogonalEdgeStyle;rounded=0;orthogonalLoop=1;jettySize=auto;html=1;" edge="1" parent="1" source="b4sE8ZXVgSYnRpChD7hY-27" target="b4sE8ZXVgSYnRpChD7hY-33">
          <mxGeometry relative="1" as="geometry" />
        </mxCell>
        <mxCell id="b4sE8ZXVgSYnRpChD7hY-26" value="&lt;font style=&quot;font-size: 26px;&quot;&gt;IYA&lt;/font&gt;" style="edgeLabel;html=1;align=center;verticalAlign=middle;resizable=0;points=[];" vertex="1" connectable="0" parent="b4sE8ZXVgSYnRpChD7hY-25">
          <mxGeometry x="-0.4444" y="2" relative="1" as="geometry">
            <mxPoint as="offset" />
          </mxGeometry>
        </mxCell>
        <mxCell id="b4sE8ZXVgSYnRpChD7hY-27" value="" style="rhombus;whiteSpace=wrap;html=1;strokeWidth=4;" vertex="1" parent="1">
          <mxGeometry x="1309.99" y="1762" width="130.01" height="90" as="geometry" />
        </mxCell>
        <mxCell id="b4sE8ZXVgSYnRpChD7hY-28" value="" style="edgeStyle=orthogonalEdgeStyle;rounded=0;orthogonalLoop=1;jettySize=auto;html=1;exitX=1;exitY=0.5;exitDx=0;exitDy=0;entryX=0;entryY=0.5;entryDx=0;entryDy=0;" edge="1" parent="1" source="b4sE8ZXVgSYnRpChD7hY-24" target="b4sE8ZXVgSYnRpChD7hY-27">
          <mxGeometry relative="1" as="geometry">
            <mxPoint x="1279.995" y="1780" as="sourcePoint" />
            <mxPoint x="1369.995" y="1780" as="targetPoint" />
          </mxGeometry>
        </mxCell>
        <mxCell id="b4sE8ZXVgSYnRpChD7hY-29" value="" style="edgeStyle=orthogonalEdgeStyle;rounded=0;orthogonalLoop=1;jettySize=auto;html=1;exitX=0.5;exitY=0;exitDx=0;exitDy=0;entryX=0.655;entryY=1.037;entryDx=0;entryDy=0;entryPerimeter=0;" edge="1" parent="1" source="b4sE8ZXVgSYnRpChD7hY-27" target="b4sE8ZXVgSYnRpChD7hY-42">
          <mxGeometry relative="1" as="geometry">
            <mxPoint x="1369.995" y="2030" as="sourcePoint" />
            <mxPoint x="1419.995" y="2030" as="targetPoint" />
          </mxGeometry>
        </mxCell>
        <mxCell id="b4sE8ZXVgSYnRpChD7hY-30" value="" style="edgeStyle=orthogonalEdgeStyle;rounded=0;orthogonalLoop=1;jettySize=auto;html=1;" edge="1" parent="1" source="b4sE8ZXVgSYnRpChD7hY-31" target="b4sE8ZXVgSYnRpChD7hY-32">
          <mxGeometry relative="1" as="geometry" />
        </mxCell>
        <mxCell id="b4sE8ZXVgSYnRpChD7hY-31" value="&lt;font style=&quot;font-size: 26px;&quot;&gt;MENGISI FORM EDIT&lt;/font&gt;" style="whiteSpace=wrap;html=1;rounded=1;strokeWidth=4;" vertex="1" parent="1">
          <mxGeometry x="519.985" y="1915" width="220" height="114" as="geometry" />
        </mxCell>
        <mxCell id="b4sE8ZXVgSYnRpChD7hY-32" value="&lt;font style=&quot;font-size: 26px;&quot;&gt;MENGUBAH ISI REKOMENDASI&lt;/font&gt;" style="whiteSpace=wrap;html=1;rounded=1;strokeWidth=4;" vertex="1" parent="1">
          <mxGeometry x="1049.99" y="1910" width="220.01" height="124" as="geometry" />
        </mxCell>
        <mxCell id="b4sE8ZXVgSYnRpChD7hY-33" value="&lt;font style=&quot;font-size: 24px;&quot;&gt;MENGHAPUS REKOMENDASI&lt;/font&gt;" style="rounded=1;whiteSpace=wrap;html=1;strokeWidth=4;" vertex="1" parent="1">
          <mxGeometry x="1280" y="1910" width="180" height="130" as="geometry" />
        </mxCell>
        <mxCell id="b4sE8ZXVgSYnRpChD7hY-34" value="" style="edgeStyle=orthogonalEdgeStyle;rounded=0;orthogonalLoop=1;jettySize=auto;html=1;exitX=0.5;exitY=1;exitDx=0;exitDy=0;entryX=0.873;entryY=1.007;entryDx=0;entryDy=0;entryPerimeter=0;" edge="1" parent="1" source="b4sE8ZXVgSYnRpChD7hY-32" target="b4sE8ZXVgSYnRpChD7hY-42">
          <mxGeometry relative="1" as="geometry">
            <mxPoint x="1169.995" y="2440" as="sourcePoint" />
            <mxPoint x="1480" y="1600" as="targetPoint" />
            <Array as="points">
              <mxPoint x="1135" y="2034" />
              <mxPoint x="1135" y="2090" />
              <mxPoint x="1473" y="2090" />
              <mxPoint x="1473" y="1600" />
              <mxPoint x="1473" y="1600" />
            </Array>
          </mxGeometry>
        </mxCell>
        <mxCell id="b4sE8ZXVgSYnRpChD7hY-35" value="&lt;font style=&quot;font-size: 34px;&quot;&gt;START&lt;/font&gt;" style="text;html=1;align=center;verticalAlign=middle;whiteSpace=wrap;rounded=0;" vertex="1" parent="1">
          <mxGeometry x="1230.615" y="400" width="126.87" height="30" as="geometry" />
        </mxCell>
        <mxCell id="b4sE8ZXVgSYnRpChD7hY-36" value="" style="ellipse;html=1;shape=endState;fillColor=#000000;strokeColor=#ff0000;" vertex="1" parent="1">
          <mxGeometry x="668.6600000000002" y="2220" width="75.79" height="80" as="geometry" />
        </mxCell>
        <mxCell id="b4sE8ZXVgSYnRpChD7hY-37" value="&lt;font style=&quot;font-size: 34px;&quot;&gt;END&lt;/font&gt;" style="text;html=1;align=center;verticalAlign=middle;whiteSpace=wrap;rounded=0;" vertex="1" parent="1">
          <mxGeometry x="643.1150000000001" y="2320" width="126.87" height="30" as="geometry" />
        </mxCell>
        <mxCell id="b4sE8ZXVgSYnRpChD7hY-42" value="&lt;span style=&quot;font-size: 26px;&quot;&gt;MENAMPILKAN SEMUA TEMPAT KOPI YANG REKOMENDASI&lt;/span&gt;" style="whiteSpace=wrap;html=1;rounded=1;strokeWidth=4;" vertex="1" parent="1">
          <mxGeometry x="1080" y="1426.14" width="450" height="167.72" as="geometry" />
        </mxCell>
        <mxCell id="b4sE8ZXVgSYnRpChD7hY-43" value="" style="edgeStyle=orthogonalEdgeStyle;rounded=0;orthogonalLoop=1;jettySize=auto;html=1;exitX=1;exitY=0.5;exitDx=0;exitDy=0;" edge="1" parent="1" source="b4sE8ZXVgSYnRpChD7hY-48" target="b4sE8ZXVgSYnRpChD7hY-42">
          <mxGeometry relative="1" as="geometry">
            <mxPoint x="906.7200000000003" y="1881.5800000000004" as="sourcePoint" />
            <mxPoint x="980" y="1940" as="targetPoint" />
          </mxGeometry>
        </mxCell>
        <mxCell id="b4sE8ZXVgSYnRpChD7hY-44" value="" style="edgeStyle=orthogonalEdgeStyle;rounded=0;orthogonalLoop=1;jettySize=auto;html=1;exitX=0.144;exitY=0.979;exitDx=0;exitDy=0;exitPerimeter=0;entryX=0.5;entryY=0;entryDx=0;entryDy=0;" edge="1" parent="1" source="b4sE8ZXVgSYnRpChD7hY-42" target="b4sE8ZXVgSYnRpChD7hY-17">
          <mxGeometry relative="1" as="geometry">
            <mxPoint x="1130" y="2030" as="sourcePoint" />
            <mxPoint x="1303" y="2030" as="targetPoint" />
            <Array as="points">
              <mxPoint x="1145" y="1620" />
              <mxPoint x="753" y="1620" />
            </Array>
          </mxGeometry>
        </mxCell>
        <mxCell id="b4sE8ZXVgSYnRpChD7hY-45" value="" style="edgeStyle=orthogonalEdgeStyle;rounded=0;orthogonalLoop=1;jettySize=auto;html=1;entryX=0.506;entryY=-0.025;entryDx=0;entryDy=0;entryPerimeter=0;exitX=0.948;exitY=0.986;exitDx=0;exitDy=0;exitPerimeter=0;" edge="1" parent="1" source="b4sE8ZXVgSYnRpChD7hY-42" target="b4sE8ZXVgSYnRpChD7hY-36">
          <mxGeometry relative="1" as="geometry">
            <mxPoint x="1510" y="2560" as="sourcePoint" />
            <mxPoint x="1390" y="2560" as="targetPoint" />
            <Array as="points">
              <mxPoint x="1507" y="2170" />
              <mxPoint x="707" y="2170" />
            </Array>
          </mxGeometry>
        </mxCell>
        <mxCell id="b4sE8ZXVgSYnRpChD7hY-46" value="" style="edgeStyle=orthogonalEdgeStyle;rounded=0;orthogonalLoop=1;jettySize=auto;html=1;exitX=0.499;exitY=0.992;exitDx=0;exitDy=0;exitPerimeter=0;entryX=0.499;entryY=-0.017;entryDx=0;entryDy=0;entryPerimeter=0;" edge="1" parent="1" source="b4sE8ZXVgSYnRpChD7hY-16" target="b4sE8ZXVgSYnRpChD7hY-48">
          <mxGeometry relative="1" as="geometry">
            <mxPoint x="759.63" y="1370" as="sourcePoint" />
            <mxPoint x="759.63" y="1426" as="targetPoint" />
          </mxGeometry>
        </mxCell>
        <mxCell id="b4sE8ZXVgSYnRpChD7hY-48" value="&lt;font style=&quot;font-size: 26px;&quot;&gt;SUBMIT&lt;/font&gt;" style="whiteSpace=wrap;html=1;rounded=1;strokeWidth=4;" vertex="1" parent="1">
          <mxGeometry x="610" y="1430" width="300" height="160" as="geometry" />
        </mxCell>
      </root>
    </mxGraphModel>
  </diagram>
</mxfile>
